<svg width="1024" height="1024" viewBox="0 0 1024 1024" fill="none" xmlns="http://www.w3.org/2000/svg">
<path d="M152 559C152 536.909 169.909 519 192 519H292C314.091 519 332 536.909 332 559V748C332 770.091 314.091 788 292 788H192C169.909 788 152 770.091 152 748V559Z" fill="#3CBF6F"/>
<path d="M422 418C422 395.909 439.909 378 462 378H562C584.091 378 602 395.909 602 418V748C602 770.091 584.091 788 562 788H462C439.909 788 422 770.091 422 748V418Z" fill="#3CBF6F"/>
<path d="M692 276C692 253.909 709.909 236 732 236H832C854.091 236 872 253.909 872 276V748C872 770.091 854.091 788 832 788H732C709.909 788 692 770.091 692 748V276Z" fill="#3CBF6F"/>
</svg>
